<?xml version="1.0" encoding="UTF-8"?>
<svg viewBox="0 0 455.15 454.79" xmlns="http://www.w3.org/2000/svg">
 <g fill-rule="evenodd">
  <path d="m191.3 382.43v-145.94c-8.461 9.684-16.381 17.783-23.904 24.443-7.561 6.552-13.356 12.024-21.133 15.156-8.063 3.132-19.295 6.12-26.063 3.276-6.769-3.097-11.088-8.856-14.076-21.168-2.952-12.528-3.528-37.009-3.815-52.633-0.46899-15.731-3.492-32.399 1.619-40.14 5.148-7.704 23.112-9.144 28.764-5.436 5.473 3.744 3.313 16.02 4.357 27.684 0.936 11.7 1.475 25.344 1.619 41.76 5.939-6.12 12.133-12.132 18.973-18.432 6.84-6.336 12.779-15.156 21.707-18.972 8.82-3.816 19.908-5.04 30.924-3.816 10.98 1.224 22.824 10.62 34.164 10.836 11.232-0.035995 22.608-7.164 32.58-10.296 9.721-3.096 15.66 4.104 26.028-8.136 10.404-12.456 25.849-47.664 35.784-65.628 9.72-18.108 14.58-35.28 22.788-41.796 8.172-6.372 22.5-2.736 26.063 3.276 3.349 5.832 4.356 10.944-5.436 32.004-9.972 21.204-39.78 72.756-53.172 93.852-13.428 20.809-22.104 31.068-26.568 30.925v149.18c-37.044 9.77e-4 -74.124 9.77e-4 -111.2 9.77e-4z"/>
  <path d="m250.96 89.397c23.946 0 43.38 19.45 43.38 43.416 0 23.965-19.434 43.416-43.38 43.416-23.945 0-43.38-19.451-43.38-43.416-1.5e-5 -23.966 19.435-43.416 43.38-43.416"/>
  <path d="m78.977 171.4v7.596h71.063v-7.596h-71.063z"/>
  <path d="m152.96 149.69c-4.896 0-8.892 3.96-8.892 8.856v32.184c0 4.896 3.996 8.892 8.892 8.892h3.96c4.896 0 8.856-3.996 8.856-8.892v-32.184c0-4.896-3.96-8.856-8.856-8.856h-3.96z"/>
  <path d="m81.893 149.69c-4.896 0-8.893 3.96-8.893 8.856v32.184c0 4.896 3.996 8.892 8.893 8.892h3.959c4.896 0 8.856-3.996 8.856-8.892v-32.184c0-4.896-3.96-8.856-8.856-8.856h-3.959z"/>
  <path d="m335.84 70.489l-3.023 6.984 65.268 28.116 3.024-6.984-65.269-28.116v8e-6z"/>
  <path d="m412.34 79.813c-4.5-1.908-9.72 0.144-11.664 4.644-4.212 9.864-8.46 19.692-12.708 29.556-1.943 4.5 0.14502 9.72 4.645 11.664 1.188 0.504 2.412 1.044 3.636 1.548 4.5 1.944 9.72-0.14401 11.628-4.644 4.248-9.828 8.496-19.692 12.744-29.52 1.944-4.5-0.14401-9.72-4.644-11.664-1.189-0.54-2.412-1.044-3.637-1.584z"/>
  <path d="m347.07 51.733c-4.5-1.944-9.72 0.108-11.664 4.608-4.212 9.864-8.46 19.692-12.708 29.556-1.944 4.5 0.14401 9.72 4.644 11.664 1.188 0.504 2.412 1.044 3.637 1.548 4.5 1.944 9.72-0.144 11.628-4.608 4.248-9.864 8.496-19.728 12.744-29.556 1.943-4.5-0.14502-9.72-4.645-11.664-1.187-0.504-2.412-1.044-3.636-1.548z"/>
 </g>
</svg>
